<?xml version="1.0" encoding="UTF-8" standalone="no" ?>
<!DOCTYPE svg PUBLIC "-//W3C//DTD SVG 1.1//EN" "http://www.w3.org/Graphics/SVG/1.1/DTD/svg11.dtd">
<svg xmlns="http://www.w3.org/2000/svg" xmlns:xlink="http://www.w3.org/1999/xlink" version="1.1" width="1080" height="1080" viewBox="0 0 1080 1080" xml:space="preserve">
<desc>Created with Fabric.js 5.2.4</desc>
<defs>
</defs>
<g transform="matrix(1 0 0 1 540 540)" id="a7f6c5df-c3f0-4350-a755-b2db51f9b175"  >
</g>
<g transform="matrix(1 0 0 1 540 540)" id="37910f05-1d8a-4ea7-a86f-d9fba5f4ffe7"  >
<rect style="stroke: none; stroke-width: 1; stroke-dasharray: none; stroke-linecap: butt; stroke-dashoffset: 0; stroke-linejoin: miter; stroke-miterlimit: 4; fill: rgb(255,255,255); fill-rule: nonzero; opacity: 1; visibility: hidden;" vector-effect="non-scaling-stroke"  x="-540" y="-540" rx="0" ry="0" width="1080" height="1080" />
</g>
<g transform="matrix(3.38 0 0 3.38 540.8 540.82)"  >
<path style="stroke: none; stroke-width: 1; stroke-dasharray: none; stroke-linecap: butt; stroke-dashoffset: 0; stroke-linejoin: miter; stroke-miterlimit: 10; fill: rgb(215,75,75); fill-rule: nonzero; opacity: 1;" vector-effect="non-scaling-stroke"  transform=" translate(-160, -180)" d="M 20.961 227.22 L 24.686999999999998 231.878 L 22.823999999999998 225.82199999999997 C 22.357999999999997 223.027 19.098 226.28799999999998 20.961 227.21999999999997 M 25.153 224.425 C 26.549999999999997 226.75400000000002 27.948 229.083 27.948 231.412 C 27.948 234.673 30.743000000000002 236.07 33.071 237.001 C 29.81 233.275 27.947 223.02700000000002 25.153 224.425 M 204.017 26.929 C 211.935 26.929 219.388 25.997 227.773 27.86 C 248.268 32.984 265.502 43.231 277.147 57.671 L 309.753 109.84 C 311.15 122.882 313.945 137.322 313.479 153.159 C 316.74 153.159 316.274 148.501 320 147.569 C 316.274 156.885 314.41 168.52999999999997 313.479 182.03799999999998 C 311.15 174.58499999999998 313.479 163.40599999999998 313.945 157.35099999999997 C 310.68399999999997 162.47499999999997 308.82099999999997 158.74799999999996 308.82099999999997 156.41899999999998 C 309.287 152.69299999999998 307.424 153.158 306.02599999999995 151.761 C 300.90199999999993 147.103 297.64199999999994 141.97899999999998 293.91599999999994 134.061 C 296.24499999999995 128.006 296.71099999999996 119.156 289.2579999999999 114.498 C 286.9289999999999 113.101 284.1339999999999 110.772 282.7369999999999 107.045 C 280.8739999999999 101.921 277.6129999999999 95.866 278.5439999999999 87.94800000000001 C 279.00999999999993 85.61900000000001 271.5569999999999 93.072 267.36499999999995 89.811 C 249.19899999999996 77.23500000000001 231.03299999999996 62.79500000000001 209.14099999999996 50.684000000000005 C 197.49599999999995 50.684000000000005 189.11199999999997 46.492000000000004 184.91999999999996 41.368 C 181.19399999999996 36.71 183.98799999999997 30.655 189.57799999999995 30.189 C 192.83899999999994 30.189 196.56499999999994 29.257 199.35999999999996 31.121 C 199.82599999999996 29.258 201.68899999999996 26.929 204.01699999999997 26.929 M 157.904 16.215 L 158.83599999999998 16.681 C 163.49399999999997 17.613 165.82299999999998 24.134 170.94599999999997 21.805 C 170.94599999999997 25.066 171.41199999999998 28.326 170.47999999999996 30.655 C 169.08299999999997 34.381 164.88999999999996 34.381 161.62999999999997 34.381 C 130.42199999999997 32.518 112.25599999999997 45.56 93.15899999999996 56.739000000000004 C 88.03499999999997 60.00000000000001 82.44599999999997 62.32900000000001 78.25299999999996 66.521 C 58.22399999999996 85.153 36.33199999999996 102.387 31.207999999999956 136.856 L 27.015999999999956 175.051 C 26.549999999999955 179.243 21.891999999999957 183.435 22.823999999999955 188.559 L 26.083999999999953 211.383 C 22.822999999999954 208.122 20.959999999999955 212.315 21.891999999999953 214.178 C 22.357999999999954 215.575 24.220999999999954 220.233 27.015999999999952 216.041 C 30.74199999999995 223.028 34.46899999999995 236.536 39.591999999999956 242.591 C 55.42899999999996 261.223 75.92399999999995 277.991 92.69299999999996 294.76 C 96.88499999999996 293.828 100.14599999999996 293.828 101.07699999999996 291.033 C 102.47399999999996 293.82800000000003 99.67999999999995 296.623 97.35099999999996 297.089 C 104.80399999999996 301.747 113.18799999999996 305.939 124.36699999999996 306.87 C 138.80699999999996 307.802 152.31499999999997 310.13100000000003 164.89099999999996 313.392 C 171.41199999999995 311.529 177.93299999999996 310.597 184.91999999999996 310.131 C 187.24899999999997 310.131 188.64599999999996 306.405 191.44099999999995 305.47299999999996 L 191.90699999999995 300.81499999999994 C 194.70199999999994 305.00699999999995 194.23599999999996 299.41799999999995 192.37299999999996 296.62299999999993 C 195.63399999999996 299.41799999999995 196.56499999999997 301.74699999999996 197.96199999999996 303.60999999999996 C 197.96199999999996 302.21299999999997 201.68799999999996 297.08899999999994 201.68899999999996 303.14399999999995 L 202.61999999999998 297.08899999999994 C 204.01699999999997 296.1569999999999 204.48299999999998 302.21299999999997 205.88099999999997 298.0199999999999 C 207.27799999999996 293.8279999999999 210.07299999999998 297.0879999999999 212.86799999999997 295.6909999999999 C 211.93599999999998 297.5539999999999 212.40199999999996 301.2809999999999 215.66199999999998 298.95199999999994 L 219.38899999999998 295.6909999999999 C 221.718 301.2809999999999 225.444 298.95199999999994 227.307 298.0199999999999 C 247.802 284.97799999999995 268.29699999999997 269.6069999999999 287.86 254.23599999999993 L 287.394 260.29099999999994 L 289.723 252.83799999999994 C 292.052 255.16699999999994 293.915 253.30399999999995 294.84700000000004 251.90699999999993 C 297.64200000000005 247.24899999999994 301.36800000000005 242.59099999999992 307.42400000000004 238.39899999999992 C 299.97100000000006 258.42799999999994 291.12100000000004 274.26499999999993 279.942 287.3069999999999 L 275.284 292.8969999999999 C 275.284 296.1579999999999 274.352 300.34999999999985 270.626 300.8149999999999 C 268.763 301.2809999999999 265.036 299.88299999999987 262.24199999999996 302.6779999999999 C 260.84499999999997 304.5409999999999 265.503 308.26799999999986 261.77599999999995 305.4729999999999 C 258.51499999999993 303.1439999999999 255.25499999999997 305.4729999999999 251.52799999999996 306.4049999999999 C 248.73299999999998 307.33699999999993 253.39099999999996 310.1309999999999 254.32299999999995 311.9939999999999 C 255.25499999999994 313.8569999999999 256.186 315.7199999999999 255.72099999999995 318.0499999999999 L 250.59699999999995 312.4599999999999 C 244.54199999999994 315.72099999999995 240.81499999999994 321.7759999999999 235.69099999999995 326.4339999999999 C 233.36199999999994 328.2969999999999 234.29399999999995 331.55799999999994 234.29399999999995 334.3519999999999 C 231.03299999999996 334.3519999999999 227.30699999999996 333.4199999999999 225.44399999999996 335.28399999999993 C 224.04699999999997 337.14699999999993 224.51199999999997 339.94199999999995 224.51199999999997 342.7369999999999 C 219.85399999999998 342.2709999999999 219.38799999999998 335.28399999999993 215.19699999999997 336.6809999999999 C 211.00499999999997 337.61299999999994 206.34699999999998 338.0779999999999 202.61999999999998 340.4079999999999 C 205.41499999999996 345.9979999999999 197.962 342.7369999999999 198.89399999999998 343.6679999999999 C 191.90699999999998 339.4759999999999 185.85199999999998 336.2149999999999 178.39899999999997 339.0099999999999 C 162.56199999999998 333.88599999999985 142.99899999999997 336.21499999999986 128.55899999999997 338.0789999999999 C 128.55899999999997 335.7499999999999 129.02499999999998 333.4209999999999 128.09299999999996 332.95499999999987 C 127.16099999999996 335.2839999999999 124.36699999999996 334.35199999999986 124.83299999999996 334.35199999999986 C 115.98299999999996 328.29699999999985 107.13299999999995 324.5699999999999 97.81699999999995 319.4469999999999 C 89.43299999999995 320.3789999999999 81.51399999999995 316.18599999999986 79.18499999999995 313.8569999999999 C 72.66399999999994 307.8019999999999 65.21099999999994 311.0619999999999 59.15599999999995 309.6649999999999 C 46.11399999999995 306.4039999999999 41.455999999999946 292.8959999999999 40.05799999999995 283.5809999999999 C 39.12599999999995 278.9229999999999 35.39999999999995 277.0599999999999 34.00299999999995 277.5249999999999 C 27.94799999999995 257.96199999999993 18.631999999999948 240.26199999999992 11.178999999999949 222.09599999999992 C 9.31599999999995 217.43799999999993 9.781999999999949 212.77999999999992 9.781999999999949 207.65599999999992 C 12.11099999999995 208.5879999999999 14.439999999999948 208.12199999999993 13.973999999999949 204.8619999999999 C 11.644999999999948 189.4909999999999 6.0559999999999485 177.84599999999992 -5.1514348342607263e-14 166.66699999999992 C 3.2609999999999486 150.82999999999993 3.7259999999999485 132.19799999999992 11.178999999999949 118.22399999999992 C 17.69999999999995 105.64799999999991 29.81099999999995 99.12599999999992 38.19499999999995 88.41299999999993 C 40.98999999999995 84.68699999999993 40.98999999999995 79.56299999999993 43.784999999999954 76.30299999999993 C 53.10099999999996 66.98699999999992 62.41699999999996 57.20499999999993 72.66399999999996 48.82099999999993 C 77.32199999999996 45.09499999999993 82.91099999999996 48.82099999999993 89.89799999999997 47.42399999999993 C 92.22699999999996 39.03999999999993 101.54299999999996 31.58699999999993 110.39299999999997 33.915999999999926 C 114.11899999999997 34.84799999999993 121.57199999999997 25.065999999999924 123.90099999999997 24.133999999999926 C 127.62699999999997 22.736999999999927 125.76399999999997 27.859999999999925 125.76399999999997 31.120999999999924 C 134.61399999999998 24.133999999999922 146.72499999999997 20.407999999999923 157.90399999999997 16.214999999999925" stroke-linecap="round" />
</g>
<g transform="matrix(5.05 0 0 5.05 538.67 383.98)"  >
<path style="stroke: none; stroke-width: 1; stroke-dasharray: none; stroke-linecap: butt; stroke-dashoffset: 0; stroke-linejoin: miter; stroke-miterlimit: 4; fill: rgb(215,75,75); fill-rule: nonzero; opacity: 1;" vector-effect="non-scaling-stroke"  transform=" translate(-49.75, -48.25)" d="M 70.3 60.1 L 70.3 36.4 L 49.8 24.5 L 29.2 36.4 L 29.2 60.099999999999994 L 49.8 72 L 70.3 60.1 z M 31.2 37.6 L 49.7 26.900000000000002 L 68.2 37.6 L 68.2 59 L 50.8 69.1 L 50.8 64.69999999999999 L 48.8 64.69999999999999 L 48.8 69.1 L 31.2 59 L 31.2 37.6 z" stroke-linecap="round" />
</g>
<g transform="matrix(2.53 -4.37 4.37 2.53 519.45 372.36)" id="icon-0"  >
<rect style="stroke: none; stroke-width: 1; stroke-dasharray: none; stroke-linecap: butt; stroke-dashoffset: 0; stroke-linejoin: miter; stroke-miterlimit: 4; fill: rgb(215,75,75); fill-rule: nonzero; opacity: 1;" vector-effect="non-scaling-stroke"  x="-1" y="-3" rx="0" ry="0" width="2" height="6" />
</g>
<g transform="matrix(2.53 -4.37 4.37 2.53 467.17 341.63)" id="icon-0"  >
<rect style="stroke: none; stroke-width: 1; stroke-dasharray: none; stroke-linecap: butt; stroke-dashoffset: 0; stroke-linejoin: miter; stroke-miterlimit: 4; fill: rgb(215,75,75); fill-rule: nonzero; opacity: 1;" vector-effect="non-scaling-stroke"  x="-1" y="-3" rx="0" ry="0" width="2" height="6" />
</g>
<g transform="matrix(4.37 -2.52 2.52 4.37 558.24 372.26)" id="icon-0"  >
<rect style="stroke: none; stroke-width: 1; stroke-dasharray: none; stroke-linecap: butt; stroke-dashoffset: 0; stroke-linejoin: miter; stroke-miterlimit: 4; fill: rgb(215,75,75); fill-rule: nonzero; opacity: 1;" vector-effect="non-scaling-stroke"  x="-3" y="-1" rx="0" ry="0" width="6" height="2" />
</g>
<g transform="matrix(4.37 -2.52 2.52 4.37 610.79 341.93)" id="icon-0"  >
<rect style="stroke: none; stroke-width: 1; stroke-dasharray: none; stroke-linecap: butt; stroke-dashoffset: 0; stroke-linejoin: miter; stroke-miterlimit: 4; fill: rgb(215,75,75); fill-rule: nonzero; opacity: 1;" vector-effect="non-scaling-stroke"  x="-3" y="-1" rx="0" ry="0" width="6" height="2" />
</g>
<g transform="matrix(5.05 0 0 5.05 538.99 421.69)" id="icon-0"  >
<rect style="stroke: none; stroke-width: 1; stroke-dasharray: none; stroke-linecap: butt; stroke-dashoffset: 0; stroke-linejoin: miter; stroke-miterlimit: 4; fill: rgb(215,75,75); fill-rule: nonzero; opacity: 1;" vector-effect="non-scaling-stroke"  x="-1" y="-3" rx="0" ry="0" width="2" height="6" />
</g>
<g transform="matrix(5.05 0 0 5.05 406.59 327.17)" id="icon-0"  >
<rect style="stroke: none; stroke-width: 1; stroke-dasharray: none; stroke-linecap: butt; stroke-dashoffset: 0; stroke-linejoin: miter; stroke-miterlimit: 4; fill: rgb(215,75,75); fill-rule: nonzero; opacity: 1;" vector-effect="non-scaling-stroke"  x="-1" y="-13" rx="0" ry="0" width="2" height="26" />
</g>
<g transform="matrix(5.05 0 0 5.05 406.59 439.63)" id="icon-0"  >
<rect style="stroke: none; stroke-width: 1; stroke-dasharray: none; stroke-linecap: butt; stroke-dashoffset: 0; stroke-linejoin: miter; stroke-miterlimit: 4; fill: rgb(215,75,75); fill-rule: nonzero; opacity: 1;" vector-effect="non-scaling-stroke"  x="-1" y="-3.35" rx="0" ry="0" width="2" height="6.7" />
</g>
<g transform="matrix(5.05 0 0 5.05 673.4 327.17)" id="icon-0"  >
<rect style="stroke: none; stroke-width: 1; stroke-dasharray: none; stroke-linecap: butt; stroke-dashoffset: 0; stroke-linejoin: miter; stroke-miterlimit: 4; fill: rgb(215,75,75); fill-rule: nonzero; opacity: 1;" vector-effect="non-scaling-stroke"  x="-1" y="-13" rx="0" ry="0" width="2" height="26" />
</g>
<g transform="matrix(5.05 0 0 5.05 639.54 263.77)" id="icon-0"  >
<rect style="stroke: none; stroke-width: 1; stroke-dasharray: none; stroke-linecap: butt; stroke-dashoffset: 0; stroke-linejoin: miter; stroke-miterlimit: 4; fill: rgb(215,75,75); fill-rule: nonzero; opacity: 1;" vector-effect="non-scaling-stroke"  x="-1" y="-5.45" rx="0" ry="0" width="2" height="10.9" />
</g>
<g transform="matrix(5.05 0 0 5.05 440.45 263.77)" id="icon-0"  >
<rect style="stroke: none; stroke-width: 1; stroke-dasharray: none; stroke-linecap: butt; stroke-dashoffset: 0; stroke-linejoin: miter; stroke-miterlimit: 4; fill: rgb(215,75,75); fill-rule: nonzero; opacity: 1;" vector-effect="non-scaling-stroke"  x="-1" y="-5.45" rx="0" ry="0" width="2" height="10.9" />
</g>
<g transform="matrix(5.05 0 0 5.05 673.4 439.63)" id="icon-0"  >
<rect style="stroke: none; stroke-width: 1; stroke-dasharray: none; stroke-linecap: butt; stroke-dashoffset: 0; stroke-linejoin: miter; stroke-miterlimit: 4; fill: rgb(215,75,75); fill-rule: nonzero; opacity: 1;" vector-effect="non-scaling-stroke"  x="-1" y="-3.35" rx="0" ry="0" width="2" height="6.7" />
</g>
<g transform="matrix(5.05 0 0 5.05 537.91 510.86)"  >
<path style="stroke: none; stroke-width: 1; stroke-dasharray: none; stroke-linecap: butt; stroke-dashoffset: 0; stroke-linejoin: miter; stroke-miterlimit: 4; fill: rgb(215,75,75); fill-rule: nonzero; opacity: 1;" vector-effect="non-scaling-stroke"  transform=" translate(-49.6, -73.35)" d="M 66.7 66.4 C 68 67.7 68.7 69.10000000000001 68.7 70.5 C 68.7 75.6 59.900000000000006 80 49.6 80 C 39.3 80 30.5 75.7 30.5 70.5 C 30.5 69 31.2 67.5 32.7 66.2 L 31.300000000000004 64.7 C 29.400000000000006 66.4 28.500000000000004 68.4 28.500000000000004 70.5 C 28.5 77 37.7 82 49.6 82 C 61.5 82 70.7 77 70.7 70.5 C 70.7 68.6 69.8 66.6 68.2 65 L 66.7 66.4 z" stroke-linecap="round" />
</g>
<g transform="matrix(1.95 0 0 1.95 540 717.99)" style="" id="ff2879ad-1dfb-4b7d-afda-7efdacaffd6e"  >
		<text xml:space="preserve" font-family="Raleway" font-size="105" font-style="normal" font-weight="900" style="stroke: none; stroke-width: 1; stroke-dasharray: none; stroke-linecap: butt; stroke-dashoffset: 0; stroke-linejoin: miter; stroke-miterlimit: 4; fill: rgb(255,1,1); fill-rule: nonzero; opacity: 1; white-space: pre;" ><tspan x="-104.11" y="32.98" >SUP</tspan></text>
</g>
</svg>